<svg width="24" height="25" viewBox="0 0 24 25" fill="none" xmlns="http://www.w3.org/2000/svg">
<path d="M17 2.02539H7C4.23858 2.02539 2 4.26397 2 7.02539V17.0254C2 19.7868 4.23858 22.0254 7 22.0254H17C19.7614 22.0254 22 19.7868 22 17.0254V7.02539C22 4.26397 19.7614 2.02539 17 2.02539Z" stroke="#383638" stroke-width="2" stroke-linecap="round" stroke-linejoin="round"/>
<path d="M16 11.3954C16.1234 12.2277 15.9812 13.0777 15.5937 13.8245C15.2062 14.5713 14.5931 15.1769 13.8416 15.5551C13.0901 15.9334 12.2384 16.065 11.4077 15.9314C10.5771 15.7977 9.80971 15.4055 9.21479 14.8106C8.61987 14.2157 8.22768 13.4483 8.09402 12.6177C7.96035 11.787 8.09202 10.9353 8.47028 10.1838C8.84854 9.4323 9.45414 8.81919 10.2009 8.43169C10.9477 8.04419 11.7977 7.90204 12.63 8.02545C13.4789 8.15133 14.2648 8.54691 14.8716 9.15375C15.4785 9.7606 15.8741 10.5465 16 11.3954Z" stroke="#383638" stroke-width="2" stroke-linecap="round" stroke-linejoin="round"/>
<path d="M17.5 6.52539H17.51" stroke="#383638" stroke-width="2" stroke-linecap="round" stroke-linejoin="round"/>
</svg>
