<svg width="24" height="25" viewBox="0 0 24 25" fill="none" xmlns="http://www.w3.org/2000/svg">
<path d="M16 8.02539C17.5913 8.02539 19.1174 8.65753 20.2426 9.78275C21.3679 10.908 22 12.4341 22 14.0254V21.0254H18V14.0254C18 13.495 17.7893 12.9863 17.4142 12.6112C17.0391 12.2361 16.5304 12.0254 16 12.0254C15.4696 12.0254 14.9609 12.2361 14.5858 12.6112C14.2107 12.9863 14 13.495 14 14.0254V21.0254H10V14.0254C10 12.4341 10.6321 10.908 11.7574 9.78275C12.8826 8.65753 14.4087 8.02539 16 8.02539V8.02539Z" stroke="#383638" stroke-width="2" stroke-linecap="round" stroke-linejoin="round"/>
<path d="M6 9.02539H2V21.0254H6V9.02539Z" stroke="#383638" stroke-width="2" stroke-linecap="round" stroke-linejoin="round"/>
<path d="M4 6.02539C5.10457 6.02539 6 5.12996 6 4.02539C6 2.92082 5.10457 2.02539 4 2.02539C2.89543 2.02539 2 2.92082 2 4.02539C2 5.12996 2.89543 6.02539 4 6.02539Z" stroke="#383638" stroke-width="2" stroke-linecap="round" stroke-linejoin="round"/>
</svg>
