<svg width="24" height="25" viewBox="0 0 24 25" fill="none" xmlns="http://www.w3.org/2000/svg">
<path d="M23 3.02544C22.0424 3.70091 20.9821 4.21755 19.86 4.55544C19.2577 3.86295 18.4573 3.37213 17.567 3.14936C16.6767 2.9266 15.7395 2.98263 14.8821 3.30989C14.0247 3.63715 13.2884 4.21984 12.773 4.97915C12.2575 5.73847 11.9877 6.63777 12 7.55544V8.55544C10.2426 8.601 8.50127 8.21125 6.93101 7.42088C5.36074 6.63052 4.01032 5.46407 3 4.02544C3 4.02544 -1 13.0254 8 17.0254C5.94053 18.4234 3.48716 19.1244 1 19.0254C10 24.0254 21 19.0254 21 7.52544C20.9991 7.24689 20.9723 6.96903 20.92 6.69544C21.9406 5.68893 22.6608 4.41815 23 3.02544V3.02544Z" stroke="#383638" stroke-width="2" stroke-linecap="round" stroke-linejoin="round"/>
</svg>
