<svg width="54" height="50" viewBox="0 0 54 50" fill="none" xmlns="http://www.w3.org/2000/svg">
<path d="M33.266 1.86948L45.5366 23.0741C46.2057 24.2307 46.2057 25.6555 45.5366 26.8121L33.266 48.0167C32.5968 49.1733 31.36 49.8857 30.0215 49.8857H37.2123C38.5508 49.8857 39.7876 49.1733 40.4568 48.0167L52.7274 26.8121C53.3965 25.6555 53.3965 24.2307 52.7274 23.0741L40.4568 1.86948C39.7876 0.71291 38.5506 0.000488281 37.2123 0.000488281H30.0215C31.36 0.000488281 32.5968 0.71291 33.266 1.86948Z" fill="#39435A"/>
<path d="M33.266 1.86948L33.8127 2.81432C34.742 2.82788 35.7073 2.90404 36.6924 3.04853C38.6527 3.33624 40.4599 3.86066 42.0038 4.54329L40.4565 1.86948C39.7876 0.71291 38.5508 0.000488281 37.2123 0.000488281H30.0215C31.36 0.000488281 32.5968 0.71291 33.266 1.86948Z" fill="#2C374C"/>
<path d="M19.4237 1.86948L31.6943 23.0741C32.3635 24.2307 32.3635 25.6555 31.6943 26.8121L19.4237 48.0167C18.7546 49.1733 17.5177 49.8857 16.1792 49.8857H23.37C24.7085 49.8857 25.9454 49.1733 26.6145 48.0167L38.8851 26.8121C39.5542 25.6555 39.5542 24.2307 38.8851 23.0741L26.6145 1.86948C25.9452 0.71291 24.7084 0.000488281 23.3698 0.000488281H16.1792C17.5176 0.000488281 18.7544 0.71291 19.4237 1.86948Z" fill="#39435A"/>
<path d="M19.9632 48.0162L7.69268 26.8116C7.0235 25.655 7.0235 24.2302 7.69268 23.0736L19.9632 1.86899C20.6324 0.712421 21.8692 0 23.2077 0H16.017C14.6784 0 13.4416 0.712421 12.7724 1.86899L0.501886 23.0736C-0.167295 24.2302 -0.167295 25.655 0.501886 26.8116L12.7724 48.0162C13.4416 49.1728 14.6784 49.8852 16.017 49.8852H23.2077C21.8692 49.8852 20.6324 49.1728 19.9632 48.0162Z" fill="#435F94"/>
<path d="M27.0526 48.0164L14.782 26.8117C14.1129 25.6552 14.1129 24.2303 14.782 23.0738L27.0526 1.86912C27.7218 0.71291 28.9586 0.000488281 30.2971 0.000488281H23.1063C21.7678 0.000488281 20.531 0.71291 19.8618 1.86948L7.59124 23.0741C6.92206 24.2307 6.92206 25.6555 7.59124 26.8121L19.8618 48.0167C20.531 49.1733 21.7678 49.8857 23.1063 49.8857H30.2971C28.9586 49.8854 27.7218 49.1729 27.0526 48.0164Z" fill="#377DFF"/>
<path d="M34.2789 48.0164L22.0084 26.8117C21.3392 25.6552 21.3392 24.2303 22.0084 23.0738L34.2789 1.86912C34.9481 0.71291 36.1849 0.000488281 37.5234 0.000488281H30.3326C28.9941 0.000488281 27.7573 0.71291 27.0881 1.86948L14.8176 23.0741C14.1484 24.2307 14.1484 25.6555 14.8176 26.8121L27.0881 48.0167C27.7573 49.1733 28.9941 49.8857 30.3326 49.8857H37.5234C36.1849 49.8854 34.9481 49.1729 34.2789 48.0164Z" fill="#37DBFF"/>
</svg>
